<?xml version="1.0" encoding="UTF-8" standalone="no"?><svg xmlns="http://www.w3.org/2000/svg" xmlns:xlink="http://www.w3.org/1999/xlink"><symbol id="svg-check" viewBox="0 0 26 26"><path d="M.3 14c-.2-.2-.3-.5-.3-.7s.1-.5.3-.7l1.4-1.4c.4-.4 1-.4 1.4 0l.1.1 5.5 5.9c.2.2.5.2.7 0L22.8 3.3h.1c.4-.4 1-.4 1.4 0l1.4 1.4c.4.4.4 1 0 1.4l-16 16.6c-.2.2-.4.3-.7.3-.3 0-.5-.1-.7-.3L.5 14.3.3 14z"></path></symbol><symbol id="svg-close" viewBox="0 0 212.982 212.982"><path d="M131.804 106.491l75.936-75.936c6.99-6.99 6.99-18.323 0-25.312-6.99-6.99-18.322-6.99-25.312 0L106.491 81.18 30.554 5.242c-6.99-6.99-18.322-6.99-25.312 0-6.989 6.99-6.989 18.323 0 25.312l75.937 75.936-75.937 75.937c-6.989 6.99-6.989 18.323 0 25.312 6.99 6.99 18.322 6.99 25.312 0l75.937-75.937 75.937 75.937c6.989 6.99 18.322 6.99 25.312 0 6.99-6.99 6.99-18.322 0-25.312l-75.936-75.936z"></path></symbol><symbol id="svg-filter" viewBox="0 0 228 228"><path d="M22.67 0h184.71c4.38 1.21 9.37 2.59 11.94 6.7 2.92 4.82 2.3 11.27-.64 15.95-3.43 5.77-9.11 9.59-14.02 13.99-5.26 4.4-10.03 9.35-15.26 13.79-13.25 11.39-26 23.33-39.2 34.77-2.06 1.92-4.45 3.67-5.76 6.23-.9 3.78-.42 7.72-.47 11.57.08 20.67 0 41.33.03 61.99-.01 7 .74 14.31-1.99 20.95-2.12 5.99-7.03 10.27-11.14 14.91-5.9 6.78-11.89 13.49-17.67 20.38-2.92 3.62-7.27 5.57-11.66 6.77h-4.11c-4.14-1.58-8.6-3.54-10.86-7.6-3.59-5.45-2.51-12.24-2.59-18.4.05-36.02-.01-72.05.04-108.06.24-3.52-3-5.58-5.18-7.79C59.72 68.94 40.39 51.96 21.3 34.7c-3.93-3.75-8.57-6.78-11.91-11.1-4.24-5.84-3.17-15.14 2.7-19.53C15.13 1.69 18.99.83 22.67 0z"></path></symbol><symbol id="svg-search" viewBox="0 0 156 156"><path d="M60.72 0h17.6c4.77 1.51 9.81 2.17 14.41 4.23 16.35 6.15 29.63 19.02 37.63 34.41 6.85 14.89 8.79 32.1 4.29 47.97-1.2 7.01-5.06 13.01-8.42 19.11 6.11 6.23 12.39 12.32 18.52 18.53 4.01 4.18 8.81 7.84 11.25 13.25v7.01A23.5 23.5 0 0 1 144.5 156h-7.01c-5.4-2.46-9.07-7.23-13.24-11.25-6.22-6.14-12.3-12.41-18.54-18.52-20.2 13.04-47.62 14.75-68.72 2.79-8.78-3.56-15.34-10.57-21.68-17.34C6.98 101.96 2.41 89.72 0 77.28V59.72c1.42-4.89 1.83-10.06 3.95-14.74C7.18 36 12.7 28.07 18.9 20.9c7.42-6.93 15.75-13.16 25.38-16.65 5.27-2.16 11-2.69 16.44-4.25m7.5 19.7c-15.5-.07-31.28 7.57-39.81 20.71-4.25 5.48-6.26 12.21-8.25 18.75.35 4.35-1.67 8.64-.27 12.89.09 11.66 5.41 23.2 13.84 31.22 6.86 7.42 16.64 11.47 26.3 13.68 7.15-.07 14.5.9 21.38-1.54 7.23-1.3 13.54-5.34 19.31-9.69 8.72-7.97 14.78-18.95 16.27-30.71-.12-5.69.59-11.5-.85-17.08-4.44-21.82-25.52-39.04-47.92-38.23z"></path></symbol><symbol id="svg-caret-down" viewBox="0 0 144 144"><path d="M0 55.42c4.2-5.07 7.93-10.48 11.97-15.67C29.54 51.21 46.9 63.01 64.4 74.6c2.52 1.53 4.73 3.73 7.6 4.58 2.66-.68 4.68-2.79 7-4.19 17.7-11.7 35.24-23.66 53.03-35.22 4.08 5.15 7.76 10.61 11.97 15.65v1.21c-4.76 2.56-9.05 5.87-13.6 8.77-19.5 12.87-38.77 26.1-58.4 38.75-23.24-15.04-46.08-30.7-69.2-45.92-.93-.55-1.86-1.08-2.8-1.6v-1.21z"></path></symbol><symbol id="svg-upload-image" viewBox="0 0 500 500"><path d="M210.7 121.72c18.06-11.28 39.11-17.28 60.27-18.67 6.66-.11 13.34-.22 20 .1 9.95.87 19.79 2.8 29.4 5.51 30.68 9.31 58.05 30.03 74.04 57.97 8.67 14.41 13.27 30.91 15.38 47.5.45 4.86 0 9.75.34 14.62 14.86.72 29.65 4.37 42.9 11.2 12.63 6.32 23.04 16.34 31.51 27.5 4.75 6.41 8.09 13.72 10.83 21.17 2.44 6.46 3.08 13.4 4.63 20.1v18.57c-2.18 13.94-7.31 27.57-15.9 38.84-6.83 7.54-14.02 15.11-23.31 19.62-12.51 6.76-26.56 10.73-40.77 11.29-49.29-.18-98.6.17-147.88-.18-.39-23.94.04-47.91-.19-71.86-.06-2.63.05-5.25.19-7.86 22.99-.41 45.99.08 68.99-.21-3.36-3.98-7.23-7.48-10.88-11.17-24.97-25.03-50.05-49.96-74.96-75.04-1.06-1.01-2.18-1.94-3.29-2.88-3.17 2.53-5.9 5.53-8.75 8.41-23.49 23.5-47.01 46.99-70.5 70.5-3.34 3.34-6.83 6.55-9.87 10.18 22.99.29 46-.2 68.98.21.36 18.61.02 37.24.14 55.85-.14 7.96.28 15.92-.14 23.88-45.28.34-90.58-.02-135.86.17-22.9-.45-45.36-9.48-62.72-24.33-6.04-5.96-12.51-11.67-17.07-18.91-5.24-8.24-9.94-16.97-12.57-26.43-1.37-4.98-2.48-10.03-3.64-15.06v-22.62c2.46-12.81 6.88-25.43 14.65-36.02 11.02-14.1 26.08-24.85 42.78-31.18 3.39-1.25 6.9-2.23 10.13-3.87 1.61-4.43 2.69-9.06 4.76-13.31 5.96-13.14 16.79-23.74 29.36-30.63 13.04-6.69 28.1-9.26 42.61-7.09 6.81.58 13.14 3.22 19.63 5.15 2.57-4.13 4.29-8.74 7.05-12.76 2.82-4.15 5.78-8.2 8.93-12.1 9.06-10.01 18.92-19.54 30.8-26.16z"></path></symbol></svg>