<svg viewBox="0 0 228 228" xmlns="http://www.w3.org/2000/svg"><path d="M22.67 0h184.71c4.38 1.21 9.37 2.59 11.94 6.7 2.92 4.82 2.3 11.27-.64 15.95-3.43 5.77-9.11 9.59-14.02 13.99-5.26 4.4-10.03 9.35-15.26 13.79-13.25 11.39-26 23.33-39.2 34.77-2.06 1.92-4.45 3.67-5.76 6.23-.9 3.78-.42 7.72-.47 11.57.08 20.67 0 41.33.03 61.99-.01 7 .74 14.31-1.99 20.95-2.12 5.99-7.03 10.27-11.14 14.91-5.9 6.78-11.89 13.49-17.67 20.38-2.92 3.62-7.27 5.57-11.66 6.77h-4.11c-4.14-1.58-8.6-3.54-10.86-7.6-3.59-5.45-2.51-12.24-2.59-18.4.05-36.02-.01-72.05.04-108.06.24-3.52-3-5.58-5.18-7.79C59.72 68.94 40.39 51.96 21.3 34.7c-3.93-3.75-8.57-6.78-11.91-11.1-4.24-5.84-3.17-15.14 2.7-19.53C15.13 1.69 18.99.83 22.67 0z"/></svg>