<svg viewBox="0 0 156 156" xmlns="http://www.w3.org/2000/svg"><path d="M60.72 0h17.6c4.77 1.51 9.81 2.17 14.41 4.23 16.35 6.15 29.63 19.02 37.63 34.41 6.85 14.89 8.79 32.1 4.29 47.97-1.2 7.01-5.06 13.01-8.42 19.11 6.11 6.23 12.39 12.32 18.52 18.53 4.01 4.18 8.81 7.84 11.25 13.25v7.01A23.5 23.5 0 0 1 144.5 156h-7.01c-5.4-2.46-9.07-7.23-13.24-11.25-6.22-6.14-12.3-12.41-18.54-18.52-20.2 13.04-47.62 14.75-68.72 2.79-8.78-3.56-15.34-10.57-21.68-17.34C6.98 101.96 2.41 89.72 0 77.28V59.72c1.42-4.89 1.83-10.06 3.95-14.74C7.18 36 12.7 28.07 18.9 20.9c7.42-6.93 15.75-13.16 25.38-16.65 5.27-2.16 11-2.69 16.44-4.25m7.5 19.7c-15.5-.07-31.28 7.57-39.81 20.71-4.25 5.48-6.26 12.21-8.25 18.75.35 4.35-1.67 8.64-.27 12.89.09 11.66 5.41 23.2 13.84 31.22 6.86 7.42 16.64 11.47 26.3 13.68 7.15-.07 14.5.9 21.38-1.54 7.23-1.3 13.54-5.34 19.31-9.69 8.72-7.97 14.78-18.95 16.27-30.71-.12-5.69.59-11.5-.85-17.08-4.44-21.82-25.52-39.04-47.92-38.23z"/></svg>
