<svg viewBox="0 0 500 500" xmlns="http://www.w3.org/2000/svg"><path d="M210.7 121.72c18.06-11.28 39.11-17.28 60.27-18.67 6.66-.11 13.34-.22 20 .1 9.95.87 19.79 2.8 29.4 5.51 30.68 9.31 58.05 30.03 74.04 57.97 8.67 14.41 13.27 30.91 15.38 47.5.45 4.86 0 9.75.34 14.62 14.86.72 29.65 4.37 42.9 11.2 12.63 6.32 23.04 16.34 31.51 27.5 4.75 6.41 8.09 13.72 10.83 21.17 2.44 6.46 3.08 13.4 4.63 20.1v18.57c-2.18 13.94-7.31 27.57-15.9 38.84-6.83 7.54-14.02 15.11-23.31 19.62-12.51 6.76-26.56 10.73-40.77 11.29-49.29-.18-98.6.17-147.88-.18-.39-23.94.04-47.91-.19-71.86-.06-2.63.05-5.25.19-7.86 22.99-.41 45.99.08 68.99-.21-3.36-3.98-7.23-7.48-10.88-11.17-24.97-25.03-50.05-49.96-74.96-75.04-1.06-1.01-2.18-1.94-3.29-2.88-3.17 2.53-5.9 5.53-8.75 8.41-23.49 23.5-47.01 46.99-70.5 70.5-3.34 3.34-6.83 6.55-9.87 10.18 22.99.29 46-.2 68.98.21.36 18.61.02 37.24.14 55.85-.14 7.96.28 15.92-.14 23.88-45.28.34-90.58-.02-135.86.17-22.9-.45-45.36-9.48-62.72-24.33-6.04-5.96-12.51-11.67-17.07-18.91-5.24-8.24-9.94-16.97-12.57-26.43-1.37-4.98-2.48-10.03-3.64-15.06v-22.62c2.46-12.81 6.88-25.43 14.65-36.02 11.02-14.1 26.08-24.85 42.78-31.18 3.39-1.25 6.9-2.23 10.13-3.87 1.61-4.43 2.69-9.06 4.76-13.31 5.96-13.14 16.79-23.74 29.36-30.63 13.04-6.69 28.1-9.26 42.61-7.09 6.81.58 13.14 3.22 19.63 5.15 2.57-4.13 4.29-8.74 7.05-12.76 2.82-4.15 5.78-8.2 8.93-12.1 9.06-10.01 18.92-19.54 30.8-26.16z"/></svg>
